<?xml version="1.0" encoding="utf-8"?>
<!-- Generator: Adobe Illustrator 22.1.0, SVG Export Plug-In . SVG Version: 6.00 Build 0)  -->
<svg version="1.1" id="Capa_1" xmlns="http://www.w3.org/2000/svg" xmlns:xlink="http://www.w3.org/1999/xlink" x="0px" y="0px"
	 viewBox="0 0 480 480" style="enable-background:new 0 0 480 480;" xml:space="preserve">
<style type="text/css">
	.st0{fill:#093246;}
</style>
<g>
	<g>
		<path class="st0" d="M456,208H296c-13.3,0-24,10.7-24,24v224c0,13.3,10.7,24,24,24h160c13.3,0,24-10.7,24-24V232
			C480,218.7,469.3,208,456,208z M368,464h-72c-4.4,0-8-3.6-8-8v-56h80V464z M368,384h-80v-64h80V384z M464,456c0,4.4-3.6,8-8,8h-72
			v-64h80V456z M464,384h-80v-64h80V384z M464,304H288v-72c0-4.4,3.6-8,8-8h160c4.4,0,8,3.6,8,8V304z"/>
	</g>
</g>
<g>
	<g>
		<path class="st0" d="M440,240H312c-4.4,0-8,3.6-8,8v32c0,4.4,3.6,8,8,8h128c4.4,0,8-3.6,8-8v-32C448,243.6,444.4,240,440,240z
			 M432,272H320v-16h112V272z"/>
	</g>
</g>
<g>
	<g>
		<polygon class="st0" points="336,344 336,328 320,328 320,344 304,344 304,360 320,360 320,376 336,376 336,360 352,360 352,344 
					"/>
	</g>
</g>
<g>
	<g>
		<rect x="400" y="344" class="st0" width="48" height="16"/>
	</g>
</g>
<g>
	<g>
		<polygon class="st0" points="350.6,421.7 339.3,410.3 328,421.7 316.7,410.3 305.4,421.7 316.7,433 305.4,444.3 316.7,455.6 
			328,444.3 339.3,455.6 350.6,444.3 339.3,433 		"/>
	</g>
</g>
<g>
	<g>
		<rect x="400" y="424" class="st0" width="48" height="16"/>
	</g>
</g>
<g>
	<g>
		<rect x="416" y="444" class="st0" width="16" height="8"/>
	</g>
</g>
<g>
	<g>
		<rect x="416" y="412" class="st0" width="16" height="8"/>
	</g>
</g>
<g>
	<g>
		<path class="st0" d="M320,0H88v0.1c-2.1,0-4.1,0.8-5.7,2.3l-80,80C0.9,83.9,0,85.9,0.1,88H0v376c0,8.8,7.2,16,16,16h240v-16h-48
			v-24h16c4.4,0,8-3.6,8-8v-40c0-4.4-3.6-8-8-8h-16v-24h16c4.4,0,8-3.6,8-8v-40c0-4.4-3.6-8-8-8h-0.2c20.2-15,32.2-38.8,32.2-64
			c0.1-44.2-35.7-80.1-79.8-80.2S96.1,195.5,96,239.7c0,25.3,11.9,49.2,32.2,64.3H64c-4.4,0-8,3.6-8,8v32H40c-4.4,0-8,3.6-8,8v40
			c0,4.4,3.6,8,8,8h16v24H40c-4.4,0-8,3.6-8,8v32H16V96h64c8.8,0,16-7.2,16-16V16h224v176h16V16C336,7.2,328.8,0,320,0z M216,400v24
			H72v-24H216z M112,240c0-35.3,28.7-64,64-64s64,28.7,64,64s-28.7,64-64,64S112,275.3,112,240z M72,320h144v24H72V320z M48,384v-24
			h144v24H64H48z M48,440h144v24H48V440z M80,80H27.3L80,27.3V80z"/>
	</g>
</g>
<g>
	<g>
		<path class="st0" d="M448,40h-16c0-4.4-3.6-8-8-8h-8V8c0-4.4-3.6-8-8-8h-32c-4.4,0-8,3.6-8,8v24h-8c-4.4,0-8,3.6-8,8v152h16V48h48
			v144h16V56h16v104h16V56C464,47.2,456.8,40,448,40z M400,32h-16V16h16V32z"/>
	</g>
</g>
<g>
	<g>
		<rect x="120" y="64" class="st0" width="136" height="16"/>
	</g>
</g>
<g>
	<g>
		<rect x="32" y="112" class="st0" width="272" height="16"/>
	</g>
</g>
<g>
	<g>
		<rect x="32" y="144" class="st0" width="96" height="16"/>
	</g>
</g>
<g>
	<g>
		<rect x="232" y="144" class="st0" width="72" height="16"/>
	</g>
</g>
<path class="st0" d="M187.2,284.1h14.5c2.9,0,5.3-2.4,5.3-5.3s-2.4-5.3-5.3-5.3h-14.5c-12.1,0-23.3-6.6-29.2-17.2h33.5
	c2.9,0,5.3-2.4,5.3-5.3s-2.4-5.3-5.3-5.3h-37.2c-0.6-3.7-0.6-7.5,0-11.2h37.2c2.9,0,5.3-2.4,5.3-5.3s-2.4-5.3-5.3-5.3H158
	c5.9-10.6,17.1-17.2,29.2-17.2h14.5c2.9,0,5.3-2.4,5.3-5.3s-2.4-5.3-5.3-5.3h-14.5c-18,0-34.2,11-40.8,27.8h-12.1
	c-2.9,0-5.3,2.4-5.3,5.3c0,2.9,2.4,5.3,5.3,5.3h9.4c-0.5,3.7-0.5,7.5,0,11.2h-9.4c-2.9,0-5.3,2.4-5.3,5.3c0,2.9,2.4,5.3,5.3,5.3
	h12.1C153,273.1,169.2,284.1,187.2,284.1z"/>
</svg>
