<?xml version="1.0" encoding="utf-8"?>
<!-- Generator: Adobe Illustrator 22.1.0, SVG Export Plug-In . SVG Version: 6.00 Build 0)  -->
<svg version="1.1" id="Layer_1" xmlns="http://www.w3.org/2000/svg" xmlns:xlink="http://www.w3.org/1999/xlink" x="0px" y="0px"
	 viewBox="0 0 512 433.8" style="enable-background:new 0 0 512 433.8;" xml:space="preserve">
<style type="text/css">
	.st0{fill:#093246;}
</style>
<path class="st0" d="M109.3,198.2c0,3.9,3.1,7,7,7h118c3.9,0,7-3.1,7-7v-73.1c9.5,3.2,19.8-1.9,23-11.4c2.6-7.8-0.3-16.3-7-20.9
	l-71.8-48.5c-6.1-4.2-14.2-4.2-20.4,0L93.3,92.8c-8.3,5.6-10.6,16.9-5,25.2c4.6,6.9,13.2,9.8,21,7.1V198.2z M197,191.2h-43.4v-43.3
	H197V191.2z M211,191.2v-50.3c0-3.9-3.1-7-7-7h-57.4c-3.9,0-7,3.1-7,7v50.4h-16.3v-74.8l52-35.1l52,35.1v74.8L211,191.2z M102.7,112
	c-2.3-0.4-3.8-2.6-3.3-4.9c0.2-1.1,0.9-2.1,1.8-2.7L173,55.9c1.4-1,3.3-1,4.7,0l71.8,48.5c2,1.2,2.6,3.8,1.5,5.7
	c-1.2,2-3.8,2.6-5.7,1.5c-0.1-0.1-0.3-0.2-0.4-0.3l-6.5-4.4l0,0l-59-39.9c-2.4-1.6-5.5-1.6-7.8,0l-59,39.8l0,0l-6.5,4.4
	C104.9,112,103.8,112.2,102.7,112L102.7,112z"/>
<path class="st0" d="M459.7,299.8c-0.1-46.6-36.2-85.2-82.7-88.3V69.2c0-1.9-0.7-3.6-2.1-4.9L318.6,8c-1.3-1.3-3.1-2.1-4.9-2.1H59.3
	c-3.9,0-7,3.1-7,7v408c0,3.9,3.1,7,7,7H370c3.9,0,7-3.1,7-7V388C423.5,384.9,459.6,346.3,459.7,299.8L459.7,299.8z M320.7,29.8
	l32.4,32.4h-32.4V29.8z M66.3,413.9v-394h240.3v49.3c0,3.9,3.1,7,7,7l0,0H363v135.5c-48.6,4.5-84.4,47.7-79.8,96.3
	c4,42.3,37.5,75.9,79.8,79.8v26.1H66.3z M371.2,374.2c-41.1,0-74.5-33.4-74.5-74.5s33.4-74.5,74.5-74.5s74.5,33.3,74.5,74.5
	C445.6,340.9,412.3,374.2,371.2,374.2z"/>
<path class="st0" d="M262.7,242.6H116.3c-3.9,0-7,3.1-7,7s3.1,7,7,7h146.3c3.9,0,7-3.1,7-7S266.5,242.6,262.7,242.6z"/>
<path class="st0" d="M116.3,298.6H204c3.9,0,7-3.1,7-7s-3.1-7-7-7h-87.7c-3.9,0-7,3.1-7,7S112.5,298.6,116.3,298.6z"/>
<path class="st0" d="M262.7,326.5H116.3c-3.9,0-7,3.1-7,7s3.1,7,7,7h146.3c3.9,0,7-3.1,7-7S266.5,326.5,262.7,326.5z"/>
<path class="st0" d="M204,368.5h-87.7c-3.9,0-7,3.1-7,7s3.1,7,7,7H204c3.9,0,7-3.1,7-7S207.9,368.5,204,368.5z"/>
<path class="st0" d="M384.8,348.5h16.5c3.3,0,6-2.7,6-6s-2.7-6-6-6h-16.5c-13.8,0-26.5-7.5-33.2-19.6h38c3.3,0,6-2.7,6-6s-2.7-6-6-6
	h-42.2c-0.7-4.2-0.7-8.5,0-12.7h42.2c3.3,0,6-2.7,6-6s-2.7-6-6-6h-38c6.7-12.1,19.4-19.6,33.2-19.6h16.5c3.3,0,6-2.7,6-6
	c0-3.3-2.7-6-6-6h-16.5c-20.5,0-38.9,12.5-46.4,31.6h-13.8c-3.3,0-6,2.7-6,6s2.7,6,6,6h10.7c-0.6,4.2-0.6,8.5,0,12.7h-10.7
	c-3.3,0-6,2.7-6,6s2.7,6,6,6h13.8C346,336,364.4,348.5,384.8,348.5z"/>
</svg>
