<?xml version="1.0" encoding="iso-8859-1"?>
<!-- Generator: Adobe Illustrator 19.0.0, SVG Export Plug-In . SVG Version: 6.00 Build 0)  -->
<svg version="1.1" id="Layer_1" xmlns="http://www.w3.org/2000/svg" xmlns:xlink="http://www.w3.org/1999/xlink" x="0px" y="0px"
	 viewBox="0 0 512 512" style="enable-background:new 0 0 512 512;" xml:space="preserve">
<g>
	<g>
		<path d="M181.333,32C81.344,32,0,113.344,0,213.333c0,72.363,42.965,137.707,109.44,166.443c1.387,0.597,2.816,0.875,4.224,0.875
			c4.117,0,8.064-2.411,9.792-6.443c2.325-5.397-0.149-11.669-5.568-14.016c-58.645-25.365-96.555-83.008-96.555-146.859
			c0-88.235,71.765-160,160-160s160,71.765,160,160c0,53.291-26.432,102.912-70.677,132.757c-4.885,3.285-6.165,9.92-2.88,14.805
			c3.285,4.885,9.941,6.165,14.805,2.88c50.155-33.813,80.085-90.048,80.085-150.443C362.667,113.344,281.323,32,181.333,32z"/>
	</g>
</g>
<g>
	<g>
		<path d="M455.509,259.136c-4.16-4.16-10.923-4.16-15.083,0L287.979,411.584l-77.781-77.781c-4.16-4.16-10.923-4.16-15.083,0
			l-128,128c-4.16,4.16-4.16,10.923,0,15.083c2.091,2.069,4.821,3.115,7.552,3.115c2.731,0,5.461-1.045,7.552-3.136l120.448-120.448
			l77.76,77.803c4.16,4.16,10.923,4.16,15.083,0l160-160C459.669,270.059,459.669,263.296,455.509,259.136z"/>
	</g>
</g>
<g>
	<g>
		<path d="M501.333,202.667H394.667c-4.309,0-8.213,2.603-9.856,6.592c-1.664,3.989-0.747,8.576,2.304,11.627l106.667,106.667
			c2.048,2.027,4.779,3.115,7.552,3.115c1.365,0,2.752-0.256,4.075-0.811c3.989-1.643,6.592-5.547,6.592-9.856V213.333
			C512,207.445,507.221,202.667,501.333,202.667z M490.667,294.251L420.416,224h70.251V294.251z"/>
	</g>
</g>
<g>
	<g>
		<path d="M224.875,245.376c-5.653-0.555-11.029,3.861-11.52,9.728c-0.64,7.68-11.413,11.563-32,11.563
			c-17.344,0-32.021-9.771-32.021-21.333v-64c0-11.563,14.677-21.333,32.021-21.333c20.608,0,31.381,3.883,32.021,11.563
			c0.491,5.867,5.845,10.325,11.52,9.728c5.867-0.491,10.219-5.653,9.728-11.52c-1.728-20.629-19.669-31.104-53.269-31.104
			c-29.419,0-53.355,19.136-53.355,42.667v64C128,268.864,151.936,288,181.355,288c33.621,0,51.541-10.475,53.248-31.104
			C235.093,251.029,230.741,245.867,224.875,245.376z"/>
	</g>
</g>
<g>
	<g>
		<path d="M181.333,181.333h-64c-5.888,0-10.667,4.779-10.667,10.667s4.779,10.667,10.667,10.667h64
			c5.888,0,10.667-4.779,10.667-10.667S187.221,181.333,181.333,181.333z"/>
	</g>
</g>
<g>
	<g>
		<path d="M181.333,224h-64c-5.888,0-10.667,4.779-10.667,10.667s4.779,10.667,10.667,10.667h64c5.888,0,10.667-4.779,10.667-10.667
			S187.221,224,181.333,224z"/>
	</g>
</g>
<g>
</g>
<g>
</g>
<g>
</g>
<g>
</g>
<g>
</g>
<g>
</g>
<g>
</g>
<g>
</g>
<g>
</g>
<g>
</g>
<g>
</g>
<g>
</g>
<g>
</g>
<g>
</g>
<g>
</g>
</svg>
