<?xml version="1.0" encoding="utf-8"?>
<!-- Generator: Adobe Illustrator 22.1.0, SVG Export Plug-In . SVG Version: 6.00 Build 0)  -->
<svg version="1.1" id="Calque_1" xmlns="http://www.w3.org/2000/svg" xmlns:xlink="http://www.w3.org/1999/xlink" x="0px" y="0px"
	 viewBox="0 0 474 440.2" style="enable-background:new 0 0 474 440.2;" xml:space="preserve">
<style type="text/css">
	.st0{fill:#093246;}
</style>
<path class="st0" d="M300,126.5c-2.7-2.2-6.6-2-9.2,0.4l-56.6,54.3c-1.9,1.7-2.6,4.3-2.1,6.8c0.6,2.5,2.5,4.4,4.9,5.1
	c2.4,0.7,5.1,0,6.8-1.8l52.2-50.1l54.1,42.6c2.5,2,6.1,2,8.6,0l76.4-59.4l-2.7,35.5c-0.3,3.9,2.6,7.2,6.4,7.5c0.2,0,0.4,0,0.5,0
	c3.7,0,6.7-2.8,7-6.5l3.9-51.3c0.1-1.9-0.5-3.7-1.7-5.1s-2.9-2.3-4.8-2.4l-55.3-3.9c-3.8-0.3-7.2,2.6-7.4,6.5
	c-0.3,3.8,2.6,7.2,6.4,7.5l37.2,2.7l-70.2,54.6L300,126.5z"/>
<path class="st0" d="M467,422.6h-15.2V217.5c0-1.8-0.8-3.6-2.1-4.8c-1.3-1.3-3.1-1.9-4.9-1.9h-63.2c-1.8-0.1-3.5,0.6-4.8,1.9
	c-1.3,1.3-2,3-1.9,4.8v205.1h-38V256.3c0-3.9-3.1-7.5-7-7.5h-63.2c-3.9,0-6.8,3.6-6.8,7.5v166.4h-38v-94.2c0-1.8-0.7-3.5-2-4.8
	s-3.1-1.9-4.9-1.9h-63.2c-1.8-0.1-3.6,0.6-4.9,1.9c-1.3,1.3-2,3-2,4.8v94.2H21.5c-3.9,0-7,3.1-7,7s3.1,7,7,7H467c3.9,0,7-3.1,7-7
	C474,425.8,470.9,422.6,467,422.6z M273.9,262.8h49v159.8h-49V262.8z M159,422.6v-86.9h49v86.9H159z M388.8,422.6V224.8h49v197.8
	H388.8z"/>
<path class="st0" d="M108.1,87.9v-11c0-18.8-15.2-34-34-34s-34,15.2-34,34v11c0,18.8,15.2,34,34,34S108.1,106.7,108.1,87.9z
	 M54.1,87.9v-11c0-5.4,2.1-10.6,5.9-14.4c3.8-3.8,9-6,14.4-6H74c5.4,0,10.5,2.2,14.3,6c3.8,3.8,5.9,9,5.8,14.4v11
	c0,11.3-8.7,20.4-20,20.4S54.1,99.2,54.1,87.9z"/>
<path class="st0" d="M22.2,264.8l0.2,0.2c3.2,0,6.3-0.7,9.2-2.1l3.7,124.3c0.3,9.3,6.1,17.5,14.7,20.9s18.5,1.5,25.1-5.1
	c6.6,6.5,16.5,8.5,25.1,5.1s14.4-11.7,14.7-20.9l3.7-124.1c2.9,1.4,6.1,2.1,9.3,2.1c12.2,0,22.1-9.9,22.1-22.1v-84
	c1.9-19.4-12.3-36.7-31.8-38.8c-1.2-0.1-2.4-0.4-3.6-0.4h-14.5c-1.8,0.1-3.5,0.8-4.8,2.1L75,141.2L55.5,122c-1.3-1.3-3-2.1-4.9-2.1
	H35.5C15.8,120.1,0,136.1,0,155.8c0,1.1,0.2,2.3,0.2,3.3v84c0,5.8,2.3,11.4,6.4,15.4C10.8,262.6,16.4,264.9,22.2,264.8L22.2,264.8z
	 M91.6,395.9c-5.2,0-9.4-4.2-9.4-9.4v-124c0-3.9-3.1-7-7-7s-7,3.1-7,7v124c0,5.1-4.1,9.3-9.3,9.4c-5.1,0.1-9.4-4-9.5-9.2l-4.3-143.9
	h60.2L101,386.7C100.8,391.8,96.7,395.9,91.6,395.9z M14.2,243.1v-84.4c0-0.2-0.1-0.5-0.1-0.7c-0.1-0.7-0.1-1.4-0.1-2.2
	c0-5.8,2.2-11.3,6.3-15.4c4-4.1,9.5-6.5,15.2-6.5H48l22.3,21.9l0.1,0.2c0.1,0.1,0.2,0.2,0.3,0.3c0.1,0.1,0.2,0.2,0.2,0.2
	c0.1,0.1,0.2,0.2,0.3,0.2c0.1,0.1,0.2,0.1,0.3,0.2s0.2,0.1,0.3,0.2c0.1,0.1,0.2,0.1,0.3,0.1c0.1,0.1,0.2,0.1,0.3,0.1
	c0.1,0,0.2,0.1,0.3,0.1c0.1,0,0.2,0.1,0.3,0.1c0.1,0,0.2,0.1,0.3,0.1c0.1,0,0.2,0.1,0.3,0.1c0.1,0,0.2,0,0.3,0.1c0.1,0,0.2,0,0.3,0
	c0.1,0,0.2,0,0.3,0c0.1,0,0.2,0,0.3,0c0.1,0,0.2,0,0.3,0c0.1,0,0.2,0,0.3,0c0.1,0,0.2,0,0.3,0c0.1,0,0.2,0,0.4-0.1
	c0.1,0,0.2,0,0.3-0.1c0.1,0,0.2-0.1,0.3-0.1c0.1,0,0.2-0.1,0.3-0.1c0.1,0,0.2-0.1,0.3-0.1c0.1,0,0.2-0.1,0.3-0.1
	c0.1,0,0.2-0.1,0.3-0.1c0.1-0.1,0.2-0.1,0.3-0.2c0.1-0.1,0.2-0.1,0.3-0.2c0.1-0.1,0.2-0.1,0.3-0.2c0.1-0.1,0.2-0.1,0.3-0.2
	c0.1-0.1,0.2-0.2,0.3-0.2c0.1,0,0.1-0.3,0.2-0.4l23.2-22h11.7c0.7,0,1.4,0.3,2.2,0.3c11.8,1.3,20.4,11.8,19.2,23.7
	c0,0.2-0.1,0.6-0.1,0.8v84.3c0,4.4-3.6,8-8,8c-4.4,0-8-3.6-8-8v-18.4l0.1-2.9c0-0.4-0.1-0.9-0.1-1.3v-33.9c0-3.9-3.1-7-7-7
	s-7,3.1-7,7v37.9l-0.4,4.3h-61l-0.3-7.5c0-0.3-0.2-0.5-0.2-0.7v-33.9c0-3.9-3.1-7-7-7s-7,3.1-7,7v56c0.1,2.1-0.7,4.2-2.2,5.7
	s-3.5,2.4-5.7,2.4h-0.1c-2.1,0.1-4.2-0.7-5.7-2.2C15,247.2,14.2,245.2,14.2,243.1z"/>
<path class="st0" d="M206.7,4.5c-41.1,0-74.4,33.3-74.4,74.4s33.3,74.4,74.4,74.4s74.4-33.3,74.4-74.4
	C281.1,37.9,247.8,4.6,206.7,4.5z M206.7,139.3c-33.4,0-60.4-27-60.4-60.4s27-60.4,60.4-60.4s60.4,27,60.4,60.4
	C267.1,112.3,240.1,139.3,206.7,139.3z"/>
<path class="st0" d="M225.4,48.6c3.6,1.4,7.7-0.4,9-4c1.4-3.6-0.4-7.7-4-9c-11.1-4.3-23.5-3.9-34.4,1.1s-19.3,14.1-23.3,25.4H165
	c-3.9,0-7,3.1-7,7s3.1,7,7,7h5.1c0,1.7,0,3.3,0.2,5H165c-3.9,0-7,3.1-7,7s3.1,7,7,7h8.9c9.6,21.6,34.4,31.8,56.4,23.4
	c2.4-0.9,4.1-3,4.5-5.4c0.4-2.5-0.6-5-2.5-6.6c-2-1.6-4.6-2-7-1c-12.8,4.9-27.2,0.7-35.3-10.3h26c3.9,0,7-3.1,7-7s-3.1-7-7-7h-31.6
	c-0.2-1.7-0.3-3.3-0.2-5H221c3.9,0,7-3.1,7-7s-3.1-7-7-7h-32.9C195.5,48.9,211.4,43.2,225.4,48.6z"/>
</svg>
