<?xml version="1.0" encoding="utf-8"?>
<!-- Generator: Adobe Illustrator 22.1.0, SVG Export Plug-In . SVG Version: 6.00 Build 0)  -->
<svg version="1.1" id="Layer_1" xmlns="http://www.w3.org/2000/svg" xmlns:xlink="http://www.w3.org/1999/xlink" x="0px" y="0px"
	 viewBox="0 0 512 475.9" style="enable-background:new 0 0 512 475.9;" xml:space="preserve">
<style type="text/css">
	.st0{fill:#E64664;}
</style>
<title>Growth</title>
<path class="st0" d="M407.6,132.8h16.5c3.3,0,6-2.7,6-6c0-3.3-2.7-6-6-6h-16.5c-13.8,0-26.5-7.5-33.2-19.6h38c3.3,0,6-2.7,6-6
	s-2.7-6-6-6h-42.2c-0.7-4.2-0.7-8.5,0-12.7h42.2c3.3,0,6-2.7,6-6s-2.7-6-6-6h-38c6.7-12.1,19.4-19.6,33.2-19.6h16.5c3.3,0,6-2.7,6-6
	s-2.7-6-6-6h-16.5c-20.5,0-38.9,12.5-46.4,31.6h-13.8c-3.3,0-6,2.7-6,6s2.7,6,6,6h10.7c-0.6,4.2-0.6,8.5,0,12.7h-10.7
	c-3.3,0-6,2.7-6,6s2.7,6,6,6h13.8C368.7,120.3,387.1,132.8,407.6,132.8z"/>
<path class="st0" d="M483,83.9C483,39.2,444.5,3,397,3s-86,36.2-86,80.9c0,42.5,34.9,77.8,80,80.7v68.2
	c-15.5-24.6-43.6-39.7-74-39.7c-3.3,0-6,2.5-6,5.6c0.1,42.5,35,77.7,80,80.7v56.9c-15.5-24.6-43.6-39.7-74-39.7c-3.3,0-6,2.5-6,5.6
	c0.1,42.5,35,77.7,80,80.7v84.6c0,3.1,2.7,5.6,6,5.6s6-2.5,6-5.6v-84.6c45-3,79.9-38.2,80-80.7c0-3.1-2.7-5.6-6-5.6
	c-30.4,0-58.5,15.1-74,39.7v-56.9c45-3,79.9-38.2,80-80.7c0-3.1-2.7-5.6-6-5.6c-30.4,0-58.5,15.1-74,39.7v-68.2
	C448,161.6,482.9,126.4,483,83.9z M323,83.9c0-38.4,33.1-69.6,74-69.6s74,31.2,74,69.6s-33.1,69.6-74,69.6S323,122.3,323,83.9z
	 M323.3,204.5c35.9,2.9,64.4,29.7,67.5,63.5C354.8,265.1,326.4,238.3,323.3,204.5L323.3,204.5z M323.3,308
	c35.9,2.9,64.4,29.7,67.5,63.5C354.8,368.6,326.4,341.8,323.3,308z M470.7,308c-3.1,33.8-31.6,60.6-67.5,63.5
	C406.4,337.7,434.8,310.9,470.7,308z M470.7,204.5c-3.1,33.8-31.6,60.6-67.5,63.5C406.4,234.2,434.8,207.5,470.7,204.5L470.7,204.5z
	"/>
<path class="st0" d="M293.4,304.8c-16.1-6.4-37.3-10-59.8-10c-9.9,0-19.8,0.7-29.7,2.2V177.1c0-11.3-9.8-21.5-27.6-28.6
	c-16.1-6.4-37.3-10-59.8-10s-43.8,3.5-59.8,10C38.8,155.6,29,165.7,29,177.1v195.5c0,22,37.6,38.6,87.4,38.6
	c9.9,0,19.8-0.7,29.7-2.2v22.2c0,11.3,9.8,21.5,27.6,28.6c16.1,6.4,37.3,10,59.8,10s43.7-3.5,59.8-10c17.8-7.1,27.6-17.3,27.6-28.6
	v-97.7C321,322,311.2,311.9,293.4,304.8z M61.1,159.6c14.7-5.9,34.4-9.1,55.4-9.1c43.2,0,75.4,14,75.4,26.6
	c0,5.9-7.5,12.4-20.1,17.5c-14.7,5.9-34.4,9.1-55.4,9.1c-43.2,0-75.4-14-75.4-26.6C41,171.2,48.5,164.6,61.1,159.6z M41,197.2
	c4.8,3.5,10.1,6.3,15.6,8.5c16.1,6.4,37.3,10,59.8,10s43.7-3.5,59.8-10c5.6-2.1,10.8-5,15.6-8.5v12.4c0,5.9-7.5,12.4-20.1,17.5
	c-14.7,5.9-34.4,9.1-55.4,9.1c-43.2,0-75.4-14-75.4-26.6v-12.4H41z M41,229.8c4.8,3.5,10.1,6.3,15.6,8.5c16.1,6.4,37.3,10,59.8,10
	s43.7-3.5,59.8-10c5.6-2.1,10.8-5,15.6-8.5v12.4c0,5.9-7.5,12.4-20.1,17.5c-14.7,5.9-34.4,9.1-55.4,9.1c-43.2,0-75.4-14-75.4-26.6
	v-12.4H41z M41,262.3c4.8,3.5,10.1,6.3,15.6,8.5c16.1,6.4,37.3,10,59.8,10s43.7-3.5,59.8-10c5.6-2.1,10.8-5,15.6-8.5v12.4
	c0,5.9-7.5,12.4-20.1,17.5c-14.7,5.9-34.4,9.1-55.4,9.1c-43.2,0-75.4-14-75.4-26.6L41,262.3z M41,294.9c4.8,3.5,10.1,6.3,15.6,8.5
	c16.1,6.4,37.3,10,59.8,10s43.7-3.5,59.8-10c5.6-2.1,10.8-5,15.6-8.5v4.3c-6.2,1.4-12.3,3.2-18.2,5.5c-16.9,6.8-26.6,16.3-27.5,26.9
	c-9.8,1.6-19.8,2.3-29.7,2.3c-43.2,0-75.4-14-75.4-26.6C41,307.3,41,294.9,41,294.9z M41,327.5c14.9,11.3,42.5,18.5,75.4,18.5
	c9.9,0,19.8-0.7,29.7-2.2v20.4c-9.8,1.6-19.7,2.3-29.7,2.3c-43.2,0-75.4-14-75.4-26.6C41,339.9,41,327.5,41,327.5z M41,372.5V360
	c14.9,11.3,42.5,18.5,75.4,18.5c9.9,0,19.8-0.7,29.7-2.2v20.4c-9.8,1.6-19.7,2.3-29.7,2.3C73.3,399.1,41,385.1,41,372.5L41,372.5z
	 M288.9,448.6c-14.7,5.9-34.4,9.1-55.4,9.1c-43.2,0-75.4-14-75.4-26.6v-12.5c4.8,3.5,10.1,6.3,15.6,8.5c16.1,6.4,37.3,10,59.8,10
	s43.7-3.5,59.8-10c5.6-2.1,10.8-5,15.6-8.5V431C309,437,301.5,443.5,288.9,448.6L288.9,448.6z M288.9,416
	c-14.7,5.9-34.4,9.1-55.4,9.1c-43.2,0-75.4-14-75.4-26.6v-12.4c4.8,3.5,10.1,6.3,15.6,8.5c16.1,6.4,37.3,10,59.8,10
	s43.7-3.5,59.8-10c5.6-2.1,10.8-5,15.6-8.5v12.4C309,404.4,301.5,411,288.9,416L288.9,416z M288.9,383.4
	c-14.7,5.9-34.4,9.1-55.4,9.1c-43.2,0-75.4-14-75.4-26.6v-12.4c4.8,3.5,10.1,6.3,15.6,8.5c16.1,6.4,37.3,10,59.8,10
	s43.7-3.5,59.8-10c5.6-2.1,10.8-5,15.6-8.5v12.4C309,371.9,301.5,378.4,288.9,383.4L288.9,383.4z M288.9,350.8
	c-14.7,5.9-34.4,9.1-55.4,9.1c-43.2,0-75.4-14-75.4-26.6c0-5.9,7.5-12.4,20.1-17.5c14.7-5.9,34.4-9.1,55.4-9.1
	c43.2,0,75.5,14,75.5,26.6C309,339.3,301.5,345.8,288.9,350.8L288.9,350.8z"/>
</svg>
